<svg xmlns="http://www.w3.org/2000/svg" viewBox="0 0 300.57 56.29">
  <path fill="#fefefe" d="M125.54 55.72a35.9 35.9 0 0 1-8.46-2.87c-2-1-5.5-3.28-6.86-4.48l-1.04-.92 3.52-4.21c1.93-2.32 3.67-4.25 3.85-4.3.18-.04 1.21.56 2.3 1.34 6.75 4.85 14.69 6.49 19.52 4.04 1.74-.88 2.47-1.96 2.6-3.9.1-1.3.02-1.68-.54-2.54-1.1-1.64-4.1-2.96-10.65-4.68-11.74-3.07-16.05-6.1-17.73-12.45a24.36 24.36 0 0 1 0-9.1c1.28-4.95 4.85-8.85 10.1-11 1.4-.58 1.93-.64 5.71-.64l4.17-.01v9.94l-2.27.3c-2.4.33-4.22 1.16-5 2.27a4.56 4.56 0 0 0 .14 5.31c.91 1.16 4.05 2.44 10.04 4.1 6.53 1.82 9.6 3.03 12.34 4.86a13.02 13.02 0 0 1 5.82 8.2c.51 2.01.36 7.57-.26 9.5a15.76 15.76 0 0 1-8.38 9.57c-3.82 1.83-5.16 2.1-10.98 2.2-4.51.09-5.32.04-7.94-.53zm84.83.23c-9.38-2.07-16.6-7.97-20.03-16.36-1.62-3.98-2.06-6.53-2.05-11.8 0-4.12.08-4.92.68-7.17 1.55-5.78 3.91-9.8 8.1-13.77a26.58 26.58 0 0 1 9.2-5.9L208.7 0h8.8v10.58H216c-3.16 0-7.84 2.3-10.23 5.04a18.8 18.8 0 0 0-3.5 18.6c2.48 7.19 8.89 11.36 16.77 10.95 3.4-.18 5.34-.67 7.96-1.98l1.99-.99.07-3.9.07-3.9h-12.19V23.55h24.35l-.06 12.23-.07 12.24-1.83 1.37a36.35 36.35 0 0 1-12.77 6.13c-2.51.65-3.21.7-8.62.76-4.27.03-6.35-.05-7.58-.33zM59.8 27.91V0h42.33v11.11h-29.9v33.34h30.16v11.38H59.8zm104.77 0V0h12.44v55.83h-12.44zm88.1 0V0H264.46l12.7 16.7 12.7 16.7.07-16.7.07-16.7h10.58v55.83h-8.7l-13.31-17.48-13.32-17.48-.06 17.48-.07 17.48h-12.43zM22.24 49.97V44.3l1.83-.44c3.09-.72 5.2-1.9 7.45-4.15 3.42-3.4 4.97-7.72 4.66-12.98-.35-6.12-3.43-11.14-8.38-13.63-3.12-1.57-4.26-1.77-11.19-1.91l-6.28-.14v22.29H0V0h11.74c12.7 0 14.12.11 18.47 1.48A27.02 27.02 0 0 1 48.47 20.6c.83 3.1.97 9.65.27 13.01-2.19 10.55-9.78 18.3-20.62 21.06-1.36.34-3.24.7-4.18.8l-1.72.18zm63.5-22.45v-5.56h12.69v11.11h-12.7z"/>
</svg>
